<svg id="UI" xmlns="http://www.w3.org/2000/svg" viewBox="0 0 100 40"><defs><style>.cls-1{fill:#dee7ff;}.cls-2{fill:#ccd6ff;}.cls-3{font-size:22px;fill:#9cb4ff;stroke:#9cb4ff;stroke-miterlimit:10;font-family:MLingWaiMedium-SC-GBpc-EUC-H, LingWai SC;}</style></defs><title>Btn_R</title><rect class="cls-1" x="0.52" y="0.52" width="98.95" height="38.95" rx="9.23" ry="9.23"/><path class="cls-2" d="M90.25,1.05A8.71,8.71,0,0,1,99,9.75v20.5a8.71,8.71,0,0,1-8.7,8.7H9.75a8.71,8.71,0,0,1-8.7-8.7V9.75a8.71,8.71,0,0,1,8.7-8.7h80.5m0-1H9.75A9.76,9.76,0,0,0,0,9.75v20.5A9.76,9.76,0,0,0,9.75,40h80.5A9.76,9.76,0,0,0,100,30.25V9.75A9.76,9.76,0,0,0,90.25,0Z"/><text class="cls-3" transform="translate(26.75 26)">Replay</text></svg>