<svg id="UI" xmlns="http://www.w3.org/2000/svg" viewBox="0 0 359.98 435.09"><defs><style>.cls-1,.cls-2{fill:#ccd6ff;}.cls-2{opacity:0;}.cls-3{fill:#dee7ff;}.cls-4{font-size:22px;fill:#9cb4ff;stroke:#9cb4ff;stroke-miterlimit:10;font-family:MLingWaiMedium-SC-GBpc-EUC-H, LingWai SC;}</style></defs><title>Main UI</title><rect class="cls-1" x="0.48" y="0.16" width="359.5" height="434"/><path class="cls-1" d="M359.48.66v433H1V.66h358.5m1-1H0v435h360.5V-.34Z"/><rect class="cls-1" x="0.48" y="63.16" width="359" height="359"/><path class="cls-1" d="M359,63.66v358H1v-358H359m1-1H0v360H360v-360Z"/><g id="Position_Obj." data-name="Position Obj."><polyline class="cls-2" points="-120.02 422.66 119.98 242.66 359.98 62.66 -120.02 62.66 359.98 422.66"/></g><rect class="cls-3" x="244.5" y="13.19" width="98.95" height="38.95" rx="9.23" ry="9.23"/><path class="cls-1" d="M334.23,13.71a8.72,8.72,0,0,1,8.7,8.7v20.5a8.71,8.71,0,0,1-8.7,8.7h-80.5a8.71,8.71,0,0,1-8.7-8.7V22.41a8.71,8.71,0,0,1,8.7-8.7h80.5m0-1.05h-80.5A9.75,9.75,0,0,0,244,22.41v20.5a9.74,9.74,0,0,0,9.75,9.75h80.5A9.75,9.75,0,0,0,344,42.91V22.41a9.76,9.76,0,0,0-9.75-9.75Z"/><text class="cls-4" transform="translate(270.73 38.66)">Replay</text><text class="cls-4" transform="translate(21.09 40.45)">Your Score:</text></svg>